<svg xmlns="http://www.w3.org/2000/svg" viewBox="0 0 512 512">
  <rect width="512" height="512" rx="96" fill="#0d766e"/>
  <path fill="#fffefa" d="M152 154c0-17.7 14.3-32 32-32h84c83.9 0 152 68.1 152 152v50c0 17.7-14.3 32-32 32h-54c-17.7 0-32-14.3-32-32v-56c0-18.8-15.2-34-34-34h-34v90c0 17.7-14.3 32-32 32h-18c-17.7 0-32-14.3-32-32V154zm82 8v36h34c38.7 0 70 31.3 70 70v48h42v-42c0-61.9-50.1-112-112-112h-34z"/>
  <path fill="#d49a2a" d="M120 358c0-13.3 10.7-24 24-24h82c13.3 0 24 10.7 24 24s-10.7 24-24 24h-82c-13.3 0-24-10.7-24-24z"/>
</svg>
